M48
; DRILL file KiCad 10.0.3 date 2026-07-30T19:39:41
; FORMAT={-:-/ absolute / metric / decimal}
; #@! TF.CreationDate,2026-07-30T19:39:41-03:00
; #@! TF.GenerationSoftware,Kicad,Pcbnew,10.0.3
; #@! TF.FileFunction,Plated,1,2,PTH
FMAT,2
METRIC
; #@! TA.AperFunction,Plated,PTH,ComponentDrill
T1C0.800
; #@! TA.AperFunction,Plated,PTH,ComponentDrill
T2C0.900
; #@! TA.AperFunction,Plated,PTH,ComponentDrill
T3C1.000
%
G90
G05
T1
X109.4Y-138.6
X119.56Y-138.6
X126.11Y-138.85
X136.27Y-138.85
X145.45Y-112.38
X145.45Y-122.54
T2
X135.41Y-121.95
X135.41Y-124.49
X135.45Y-128.845
X135.45Y-131.385
T3
X76.21Y-90.89
X76.21Y-93.43
X76.21Y-95.97
X76.21Y-98.51
X76.21Y-101.05
X76.21Y-103.59
X76.21Y-106.13
X76.21Y-108.67
X97.34Y-91.24
X97.34Y-93.78
X97.34Y-96.32
X97.34Y-98.86
X97.34Y-101.4
X97.34Y-103.94
X97.34Y-106.48
X97.34Y-109.02
X103.43Y-122.59
X103.69Y-115.75
X110.42Y-85.502
X110.42Y-88.042
X110.42Y-90.582
X110.42Y-93.123
X110.42Y-95.662
X110.42Y-98.203
X110.42Y-100.742
X110.42Y-103.282
X110.42Y-105.822
X110.42Y-108.362
X110.42Y-110.902
X110.42Y-113.442
X110.42Y-115.983
X110.42Y-118.522
X110.42Y-121.062
X110.42Y-123.602
X110.42Y-126.142
X110.42Y-128.683
X110.42Y-131.222
X110.42Y-133.762
X116.84Y-126.34
X128.2Y-85.502
X128.2Y-88.042
X128.2Y-90.582
X128.2Y-93.123
X128.2Y-95.662
X128.2Y-98.203
X128.2Y-100.742
X128.2Y-103.282
X128.2Y-105.822
X128.2Y-108.362
X128.2Y-110.902
X128.2Y-113.442
X128.2Y-115.983
X128.2Y-118.522
X128.2Y-121.062
X128.2Y-123.602
X128.2Y-126.142
X128.2Y-128.683
X128.2Y-131.222
X128.2Y-133.762
X138.1Y-116.18
X138.18Y-109.78
X142.62Y-138.74
M30
